<?xml version="1.0" encoding="UTF-8" standalone="no"?>
<svg
   width="64"
   height="64"
   viewBox="0 0 16.933333 16.933333"
   version="1.1"
   id="svg8"
   inkscape:version="1.2.2 (b0a8486541, 2022-12-01)"
   sodipodi:docname="remote-agent.svg"
   inkscape:export-filename="/home/lliurex/Desarrollo/zero-lliurex-installers/zero-lliurex-autofirma.install/usr/share/zero-lliurex-autofirma/autofirma.png"
   inkscape:export-xdpi="96"
   inkscape:export-ydpi="96"
   xmlns:inkscape="http://www.inkscape.org/namespaces/inkscape"
   xmlns:sodipodi="http://sodipodi.sourceforge.net/DTD/sodipodi-0.dtd"
   xmlns:xlink="http://www.w3.org/1999/xlink"
   xmlns="http://www.w3.org/2000/svg"
   xmlns:svg="http://www.w3.org/2000/svg"
   xmlns:rdf="http://www.w3.org/1999/02/22-rdf-syntax-ns#"
   xmlns:cc="http://creativecommons.org/ns#"
   xmlns:dc="http://purl.org/dc/elements/1.1/">
  <defs
     id="defs2">
    <linearGradient
       inkscape:collect="always"
       xlink:href="#linearGradient1141"
       id="linearGradient576"
       gradientUnits="userSpaceOnUse"
       x1="25.054256"
       y1="15.833558"
       x2="52.533607"
       y2="15.833558" />
    <linearGradient
       inkscape:collect="always"
       id="linearGradient1141">
      <stop
         style="stop-color:#91f5f8;stop-opacity:1;"
         offset="0"
         id="stop1137" />
      <stop
         style="stop-color:#12a1e4;stop-opacity:1;"
         offset="1"
         id="stop1139" />
    </linearGradient>
  </defs>
  <sodipodi:namedview
     id="base"
     pagecolor="#ffffff"
     bordercolor="#666666"
     borderopacity="1.0"
     inkscape:pageopacity="0.0"
     inkscape:pageshadow="2"
     inkscape:zoom="3.959798"
     inkscape:cx="26.263966"
     inkscape:cy="16.541248"
     inkscape:document-units="mm"
     inkscape:current-layer="g1973"
     inkscape:document-rotation="0"
     showgrid="false"
     units="px"
     inkscape:window-width="1920"
     inkscape:window-height="892"
     inkscape:window-x="0"
     inkscape:window-y="0"
     inkscape:window-maximized="1"
     inkscape:showpageshadow="2"
     inkscape:pagecheckerboard="0"
     inkscape:deskcolor="#d1d1d1" />
  <metadata
     id="metadata5">
    <rdf:RDF>
      <cc:Work
         rdf:about="">
        <dc:format>image/svg+xml</dc:format>
        <dc:type
           rdf:resource="http://purl.org/dc/dcmitype/StillImage" />
        <dc:title />
      </cc:Work>
    </rdf:RDF>
  </metadata>
  <g
     inkscape:label="Capa 1"
     inkscape:groupmode="layer"
     id="layer1">
    <g
       transform="matrix(0.2572496,0,0,0.2572496,-63.471734,-248.48953)"
       id="g1973">
      <g
         id="g1705"
         transform="matrix(3.3875214,0,0,3.3875214,-293.68245,-2358.456)">
        <g
           transform="matrix(0.26542776,0,0,0.26542776,159.7888,984.51812)"
           id="g1506" />
      </g>
      <g
         id="g572"
         transform="matrix(0.99844889,0,0,0.99844889,218.50054,946.3387)">
        <g
           id="g562"
           transform="matrix(-2.3224342,0,0,2.3224342,151.3358,15.248081)"
           style="stroke:none;stroke-width:0.999813;stroke-dasharray:none">
          <path
             id="path558"
             style="opacity:1;fill:none;stroke:none;stroke-width:0.999813;stroke-dasharray:none"
             d="m 25.294207,2.5841048 h 27 V 29.584105 h -27 z" />
          <path
             inkscape:label=""
             sodipodi:nodetypes="cccccccccsscccccccccc"
             inkscape:connector-curvature="0"
             id="path560"
             d="m 38.51129,6.7157543 c 0.03395,0.7200504 0.137514,1.4402892 0.05022,2.1603376 L 34.994323,7.4189955 c 0.454054,0.4957438 0.85773,0.9918765 1.158466,1.4878167 -3.978304,0.1622788 -7.299053,3.1481588 -7.855354,7.1228218 -0.396323,0.08115 -0.906786,0.102404 -2.053425,-0.06763 0.249442,7.154316 6.380013,9.486793 10.241148,9.491622 3.707111,-0.08693 7.379755,-2.822232 8.125935,-6.721934 0.63865,0.260816 1.315813,0.395862 1.99898,0.398375 3.139258,0 5.684121,-2.735878 5.684132,-6.110467 9e-6,-3.3751694 -2.544859,-6.1108515 -5.684132,-6.1108515 -2.224396,0 -4.240964,1.3983654 -5.164388,3.5691385 L 38.511236,6.714584 Z M 25.60997,13.273857 c -0.01633,0 -0.03197,0 -0.0474,0.01927 -0.25486,0.06763 -0.343823,0.56781 -0.198707,1.117456 0.14512,0.550229 0.469358,0.941454 0.724238,0.874223 0.25486,-0.06568 0.343848,-0.567619 0.198778,-1.117651 -0.134933,-0.511395 -0.427556,-0.892383 -0.676884,-0.881177 z"
             style="color:#000000;display:inline;overflow:visible;visibility:visible;opacity:1;fill:url(#linearGradient576);fill-opacity:1;fill-rule:nonzero;stroke:none;stroke-width:0.999813;stroke-linecap:square;stroke-linejoin:miter;stroke-miterlimit:4;stroke-dasharray:none;stroke-opacity:1;marker:none;enable-background:accumulate" />
        </g>
        <g
           id="g570"
           transform="matrix(0.30796972,0,0,0.30796972,281.46509,-119.99632)">
          <path
             style="fill:none;fill-opacity:1;stroke:#12a1e4;stroke-width:7.8272;stroke-linecap:butt;stroke-dasharray:none;stroke-opacity:1"
             d="m -710.64932,535.10254 c 0,0 9.30329,-0.3719 18.02009,0.20919 23.74794,1.58311 41.93962,8.39321 42.89721,30.98269 0.87833,20.71941 -16.84198,31.65924 -29.55329,32.87956 -10.89703,1.04614 -14.96722,-0.46875 -14.96722,-0.46875"
             id="path564"
             sodipodi:nodetypes="csssc" />
          <text
             xml:space="preserve"
             style="font-size:94.5989px;font-family:UnDinaru;-inkscape-font-specification:'UnDinaru, Normal';fill:#127dc3;fill-opacity:1;stroke:#127dc3;stroke-width:2.31917;stroke-linecap:round;stroke-opacity:1"
             x="-738.97284"
             y="602.24493"
             id="text568"><tspan
               sodipodi:role="line"
               id="tspan566"
               style="font-style:normal;font-variant:normal;font-weight:normal;font-stretch:normal;font-size:94.5989px;font-family:'URW Gothic';-inkscape-font-specification:'URW Gothic, Normal';font-variant-ligatures:normal;font-variant-caps:normal;font-variant-numeric:normal;font-variant-east-asian:normal;fill:#127dc3;fill-opacity:1;stroke:#127dc3;stroke-width:2.31917;stroke-opacity:1"
               x="-738.97284"
               y="602.24493">R</tspan></text>
        </g>
      </g>
    </g>
  </g>
</svg>
